Coordinates
version=1
nRows=29
nColumns=22
inDegrees=yes

Units are S.I. units (second, meters, Newtons, ...)
If the header above contains a line with 'inDegrees', this indicates whether rotational values are in degrees (yes) or radians (no).

endheader
time	pelvis_tilt	pelvis_list	pelvis_rotation	pelvis_tx	pelvis_ty	pelvis_tz	hip_flexion_r	hip_adduction_r	hip_rotation_r	knee_angle_r	ankle_angle_r	subtalar_angle_r	hip_flexion_l	hip_adduction_l	hip_rotation_l	knee_angle_l	ankle_angle_l	subtalar_angle_l	lumbar_extension	lumbar_bending	lumbar_rotation
      4.14000000	     -1.59701406	     -5.23948064	     88.55978716	      0.42865410	      0.88321455	     -0.37405207	     15.76251417	     -3.56257712	     -2.75671738	    -21.02894380	     13.42873632	     -0.91899230	     26.27094076	     -4.60577683	     -2.02848363	    -42.84234701	     13.32948009	      5.24461337	     -4.39492457	     -1.31761919	     17.72343546
      4.15000000	     -1.53820873	     -5.29686031	     88.26166673	      0.42957878	      0.88347349	     -0.37737347	     15.40844001	     -3.37580986	     -2.53128155	    -20.62352237	     13.41499333	     -0.93784209	     25.86713384	     -4.80057112	     -1.94691574	    -40.74033902	     13.59698054	      4.68624690	     -4.19134261	     -1.31548972	     17.88267528
      4.16000000	     -1.45691155	     -5.37195311	     87.99671390	      0.43034228	      0.88362233	     -0.38065912	     15.06824706	     -3.18802639	     -2.35483846	    -20.22049671	     13.47922675	     -0.96030547	     25.45251702	     -4.98729845	     -1.80525660	    -38.73390255	     13.80955714	      3.92021704	     -3.95992901	     -1.27960710	     17.92916806
      4.17000000	     -1.34345601	     -5.46412756	     87.68764339	      0.43108927	      0.88366564	     -0.38388070	     14.76618744	     -2.96140749	     -2.12620877	    -19.83607200	     13.50339377	     -0.96345019	     25.01553514	     -5.22168455	     -1.69681598	    -36.83074874	     13.95417096	      3.45634172	     -3.70360113	     -1.20818593	     17.99380869
      4.18000000	     -1.20994932	     -5.57574102	     87.37563617	      0.43173238	      0.88359204	     -0.38704563	     14.49807967	     -2.72655581	     -1.92222638	    -19.47328776	     13.54324501	     -0.95509434	     24.56981078	     -5.45417019	     -1.54978079	    -35.03974399	     14.01063233	      3.12137899	     -3.42024323	     -1.11091077	     18.00992561
      4.19000000	     -1.05940319	     -5.72575051	     87.06302672	      0.43224592	      0.88337119	     -0.39013778	     14.28477383	     -2.48578348	     -1.72410655	    -19.12962057	     13.57499100	     -0.93488707	     24.14251273	     -5.67972163	     -1.36434564	    -33.37020666	     13.95755295	      2.98949066	     -3.09038352	     -0.98661334	     17.99005173
      4.20000000	     -0.89249255	     -5.85962057	     86.75156803	      0.43263225	      0.88306570	     -0.39315356	     14.07740497	     -2.24195692	     -1.52443617	    -18.83055369	     13.67185188	     -0.90199003	     23.66949247	     -5.88693079	     -1.10291102	    -31.81315244	     13.82376964	      2.99296452	     -2.78485631	     -0.83755357	     17.90468079
      4.21000000	     -0.70815954	     -6.02848660	     86.44367383	      0.43290542	      0.88260708	     -0.39609921	     13.92501613	     -1.99085890	     -1.34578371	    -18.55787866	     13.76711480	     -0.86094899	     23.21540494	     -6.08677530	     -0.78355667	    -30.38352103	     13.57655160	      3.13189229	     -2.43940961	     -0.66437189	     17.78998538
      4.22000000	     -0.49754634	     -6.19110031	     86.14398336	      0.43307364	      0.88204207	     -0.39896274	     13.79413964	     -1.72403541	     -1.17252342	    -18.34020993	     13.90311011	     -0.80618338	     22.74205475	     -6.28843070	     -0.39741761	    -29.08518375	     13.27221797	      3.38392224	     -2.11015819	     -0.45879943	     17.62213898
      4.23000000	     -0.26216624	     -6.38103909	     85.85661272	      0.43314576	      0.88132723	     -0.40173659	     13.72113745	     -1.43965441	     -1.01044030	    -18.17474862	     14.06024959	     -0.74727806	     22.30510207	     -6.49885926	      0.02582573	    -27.94229580	     12.92945156	      3.61191711	     -1.75789843	     -0.22342838	     17.41250598
      4.24000000	     -0.00390107	     -6.57550773	     85.58022802	      0.43312949	      0.88050997	     -0.40443631	     13.68303616	     -1.14044474	     -0.85670108	    -18.06568112	     14.23954428	     -0.68486928	     21.89206188	     -6.72388774	      0.43900386	    -26.96782229	     12.60756114	      3.74144360	     -1.40920879	      0.03983807	     17.16819884
      4.25000000	      0.26017468	     -6.77397439	     85.30964455	      0.43307185	      0.87960846	     -0.40704734	     13.68508651	     -0.83723847	     -0.68463784	    -18.01966699	     14.44850300	     -0.63465923	     21.52561604	     -6.95949872	      0.77852945	    -26.18540196	     12.35537664	      3.73443511	     -1.06600108	      0.30153707	     16.88891762
      4.26000000	      0.51941942	     -6.94699643	     85.04461825	      0.43297690	      0.87870320	     -0.40960217	     13.70778358	     -0.54834117	     -0.54646183	    -18.06060879	     14.68463153	     -0.59402529	     21.17791309	     -7.19652421	      1.01194421	    -25.58180070	     12.24345688	      3.67149217	     -0.75896494	      0.54414812	     16.61753775
      4.27000000	      0.84491904	     -7.07707742	     84.84190189	      0.43279968	      0.87788391	     -0.41211345	     13.64368070	     -0.20186409	     -0.42853332	    -18.03889801	     14.84297855	     -0.48409456	     20.89338750	     -7.50138590	      1.12684404	    -25.23356379	     12.30812977	      3.36469133	     -0.51776851	      0.84810170	     16.25053931
      4.28000000	      1.08810362	     -7.18868096	     84.63053695	      0.43255521	      0.87712399	     -0.41452051	     13.63548415	      0.05031823	     -0.30403611	    -18.13359200	     15.05403389	     -0.39751007	     20.66311073	     -7.72979173	      1.08673329	    -25.04747848	     12.48176337	      3.00872558	     -0.30429747	      1.05025334	     15.90269236
      4.29000000	      1.28382243	     -7.27989403	     84.45137566	      0.43224709	      0.87650204	     -0.41680113	     13.63021682	      0.24785288	     -0.16506881	    -18.25357731	     15.20590011	     -0.29209360	     20.49658240	     -7.90432882	      0.99690629	    -25.00007702	     12.67698775	      2.49544561	     -0.12751271	      1.17911444	     15.52721221
      4.30000000	      1.42546691	     -7.32220413	     84.29476781	      0.43187195	      0.87605431	     -0.41904390	     13.59257389	      0.37469810	     -0.06829621	    -18.39904609	     15.40800976	     -0.24131980	     20.34915172	     -8.03118727	      0.81267724	    -25.06204426	     12.93364737	      2.27696999	     -0.00823569	      1.23432057	     15.15065086
      4.31000000	      1.50722100	     -7.34516765	     84.17853734	      0.43139117	      0.87577290	     -0.42115266	     13.53866006	      0.43025318	      0.05519404	    -18.52526611	     15.53901747	     -0.13792509	     20.26639939	     -8.08678036	      0.64399414	    -25.22761282	     13.14106843	      1.90093434	      0.07754120	      1.21320989	     14.73354667
      4.32000000	      1.54023159	     -7.33467883	     84.09131526	      0.43084760	      0.87566507	     -0.42320946	     13.45235583	      0.42312373	      0.14355387	    -18.64223092	     15.65568461	     -0.11444700	     20.18397358	     -8.09344959	      0.48833073	    -25.41801350	     13.31130351	      1.86467597	      0.12519387	      1.12801135	     14.32417571
      4.33000000	      1.54499531	     -7.30686349	     84.02800700	      0.43025409	      0.87569775	     -0.42522746	     13.34862912	      0.37610400	      0.18550960	    -18.75042127	     15.76729430	     -0.05060462	     20.09050688	     -8.07117481	      0.36532935	    -25.58750440	     13.45499257	      1.83003771	      0.15711408	      1.00789079	     13.92595880
      4.34000000	      1.51665388	     -7.26350168	     83.99011385	      0.42956802	      0.87585769	     -0.42721075	     13.20784721	      0.28065243	      0.19481878	    -18.80614480	     15.83530578	      0.03982832	     19.98384640	     -8.00519472	      0.28544873	    -25.73232789	     13.53370840	      1.86895576	      0.17745043	      0.85528917	     13.53954621
      4.35000000	      1.47866954	     -7.20654346	     83.96469178	      0.42882544	      0.87612426	     -0.42917043	     13.02707977	      0.16624673	      0.16835912	    -18.80509310	     15.86596792	      0.15380288	     19.84362474	     -7.92456145	      0.23259942	    -25.82581448	     13.57107734	      1.99303529	      0.18882257	      0.69768741	     13.18406976
      4.36000000	      1.44692939	     -7.15069243	     83.93587984	      0.42804367	      0.87645592	     -0.43110517	     12.81949304	      0.05590429	      0.11792441	    -18.74213570	     15.85886788	      0.26726137	     19.67371907	     -7.85015315	      0.17809757	    -25.86044998	     13.59062123	      2.15142343	      0.20898234	      0.55853519	     12.87942110
      4.37000000	      1.42417277	     -7.09421867	     83.89086091	      0.42722027	      0.87684485	     -0.43301960	     12.58364577	     -0.04589079	      0.05068484	    -18.61974099	     15.81950347	      0.38236037	     19.45820994	     -7.78391131	      0.10123501	    -25.82025474	     13.60260302	      2.30688274	      0.23652418	      0.44626803	     12.63077957
      4.38000000	      1.41046611	     -7.04387223	     83.81796711	      0.42637586	      0.87726951	     -0.43491213	     12.32772636	     -0.13517824	     -0.02114935	    -18.43829489	     15.75029823	      0.49269810	     19.19432229	     -7.72991362	     -0.02103203	    -25.69476538	     13.61918221	      2.42712455	      0.27961437	      0.36209155	     12.44295167
      4.39000000	      1.40493784	     -6.99999938	     83.70939397	      0.42553999	      0.87772008	     -0.43678588	     12.05123547	     -0.20992933	     -0.09473354	    -18.19621178	     15.66328613	      0.60234962	     18.87625837	     -7.69089757	     -0.20661468	    -25.47830241	     13.64555845	      2.50598263	      0.33941829	      0.30135839	     12.32548977
      4.40000000	      1.40627787	     -6.96010674	     83.56306236	      0.42472802	      0.87818792	     -0.43863940	     11.75553700	     -0.27168244	     -0.17500560	    -17.90265718	     15.58025158	      0.71582131	     18.50187216	     -7.66577343	     -0.45710620	    -25.17248193	     13.67755903	      2.54156352	      0.41260152	      0.26069395	     12.28588169
      4.41000000	      1.39962844	     -6.93868189	     83.37805743	      0.42393680	      0.87865032	     -0.44044536	     11.46265466	     -0.33242778	     -0.22262846	    -17.56249221	     15.46688671	      0.81669922	     18.09155125	     -7.63771223	     -0.76559737	    -24.77964878	     13.71723724	      2.53167015	      0.51381835	      0.22848954	     12.29203427
      4.42000000	      1.38223441	     -6.93315577	     83.15586196	      0.42321754	      0.87909651	     -0.44220295	     11.17531480	     -0.39334001	     -0.24435673	    -17.18696919	     15.34550505	      0.90917386	     17.65083783	     -7.60784778	     -1.12272957	    -24.31241200	     13.75647795	      2.48974016	      0.64112624	      0.19140786	     12.34701427
